<svg width="38" height="38" viewBox="0 0 38 38" fill="none" xmlns="http://www.w3.org/2000/svg">
<rect width="38" height="38" rx="19" fill="black"/>
<path d="M12.9923 8.98232C10.7009 12.9221 10.3703 18.0127 12.6265 22.5087C14.8828 27.0047 19.1619 29.782 23.7472 30.2708C17.8992 33.2055 10.8208 30.7898 7.86431 24.8986C6.4457 22.0717 6.189 18.8067 7.15068 15.8219C8.11236 12.837 10.2136 10.3767 12.9923 8.98232ZM27.0816 11.4458L23.3579 11.0584L21.5874 14.3728L20.7342 10.6769L17.0555 9.95143L20.2724 8.04599L19.7725 4.29397L22.634 6.8123L25.9586 5.21667L24.486 8.69704L27.0816 11.4458ZM24.3063 21.5963L21.3867 21.2905L20.0118 23.8728L19.3757 20.9897L16.4922 20.4232L18.9953 18.9487L18.598 16.0186L20.8045 17.9922L23.4244 16.7503L22.2703 19.44L24.3063 21.5963Z" fill="#EEEEEE"/>
</svg>
