<svg width="103" height="104" viewBox="0 0 103 104" fill="none" xmlns="http://www.w3.org/2000/svg">
<path d="M93.5988 72.7621L93.5524 72.4658C93.3773 71.3351 93.1916 70.15 92.9525 69.1559C92.6402 67.9611 92.322 67.4342 92.0503 67.2036C92.4671 66.0841 92.8426 64.9273 93.1702 63.757C94.0392 60.6523 94.5522 57.5251 94.696 54.4234C95.2124 55.4436 95.7489 56.3921 96.4053 57.3742C97.2241 58.6078 98.5106 60.204 99.27 60.7256L101.837 62.5516L99.8917 60.0755C99.3431 59.3554 98.6961 58.2472 98.0971 57.1524L97.9414 56.877C97.3943 55.874 96.8366 54.8165 96.2428 53.9807C95.5451 52.9613 95.0841 52.5747 94.731 52.4501C94.7599 48.0028 94.0916 43.6436 92.8192 39.5017C93.6624 40.2785 94.4949 41.0009 95.4608 41.709C96.6639 42.5866 98.388 43.6357 99.2756 43.8842C99.2756 43.8842 99.2756 43.8842 99.2996 43.8909L102.353 44.7197L99.6669 43.0408C98.8941 42.567 97.8724 41.6886 96.9812 40.8984L96.7747 40.7118C95.9008 39.9522 95.0097 39.1619 94.1743 38.5418C93.1605 37.8202 92.5741 37.6046 92.2048 37.63C90.7204 33.506 88.6014 29.6164 85.9647 26.097C87.0282 26.5491 88.057 26.9401 89.2018 27.2863C89.2498 27.2997 89.2977 27.3132 89.3457 27.3266C90.7611 27.7227 92.6724 28.1032 93.551 28.0143L96.6999 27.7624L93.6237 27.1075C92.7467 26.9135 91.526 26.4688 90.3599 26.0137L90.0787 25.9092C89.0086 25.481 87.8905 25.0393 86.907 24.764C85.7075 24.4282 85.0849 24.4343 84.7609 24.5754C81.9988 21.2269 78.7126 18.2726 74.9886 15.8653C76.135 15.9286 77.2161 15.9479 78.4026 15.8679C79.8797 15.7663 81.9062 15.4579 82.7383 15.0727L85.6135 13.7656L82.4724 14.1741C81.5565 14.3041 80.2941 14.2856 79.0384 14.2431L78.7305 14.2342C77.5774 14.1948 76.3937 14.1725 75.3645 14.245C74.1473 14.3421 73.574 14.5422 73.3018 14.7751C70.1493 12.9141 66.6846 11.4293 63.0141 10.4019C62.3904 10.2274 61.76 10.0767 61.1296 9.92598C62.2323 9.59077 63.263 9.23542 64.3512 8.76737C65.7087 8.16869 67.5118 7.17963 68.1509 6.56012L70.3975 4.35602L67.6089 5.8161C66.8181 6.23859 65.586 6.66636 64.4152 7.05978L64.1285 7.15982C63.0431 7.52562 61.9031 7.90188 60.9616 8.30797C59.8361 8.81708 59.3665 9.20073 59.201 9.51495C54.7759 8.68847 50.3795 8.59114 46.1 9.09309C47.0124 8.42131 47.8528 7.72939 48.7266 6.91805C49.7872 5.90146 51.1521 4.35197 51.5367 3.53247L52.8761 0.688113L50.7706 3.03475C50.1662 3.71545 49.1657 4.5171 48.196 5.30158L47.9612 5.49341C47.0595 6.21967 46.1337 6.93921 45.3893 7.65799C44.5021 8.51709 44.1978 9.04999 44.1522 9.39778C39.7818 10.1319 35.5869 11.5331 31.6727 13.5023C32.3027 12.5454 32.878 11.5991 33.3908 10.5064C34.0491 9.17116 34.7891 7.26648 34.8619 6.3597L35.0843 3.25424L33.9062 6.16948C33.5696 7.00241 32.9235 8.10926 32.2668 9.16164L32.1146 9.42809C31.5019 10.4155 30.8826 11.4269 30.4473 12.3352C29.8971 13.4689 29.8087 14.0622 29.8897 14.4197C26.0794 16.5725 22.5979 19.3066 19.5813 22.5056C19.8408 21.3936 20.039 20.3159 20.1612 19.1396C20.3157 17.6634 20.3707 15.6185 20.1221 14.7505L19.3221 11.6937L19.2196 14.8327C19.2015 15.7291 18.9499 16.9978 18.7116 18.2188L18.6554 18.5121C18.4198 19.6309 18.1949 20.8041 18.0888 21.8303C17.9772 23.061 18.094 23.6603 18.267 23.9663C15.4663 27.2257 13.1304 30.9501 11.3888 35.0468C11.2618 33.9296 11.0733 32.8467 10.8023 31.6892C10.4542 30.2526 9.78127 28.3129 9.26331 27.5756L7.45377 24.9831L8.42448 27.9847C8.70374 28.8355 8.91733 30.1057 9.11362 31.3453L9.16004 31.6416C9.32841 32.7961 9.52076 33.9574 9.75991 34.9515C10.0722 36.1463 10.3904 36.6732 10.6621 36.9037C10.2453 38.0233 9.8698 39.1801 9.54226 40.3504C8.67326 43.4551 8.16017 46.5823 8.01636 49.684C7.49995 48.6638 6.9635 47.7153 6.30709 46.7332C5.48826 45.4996 4.20181 43.9034 3.44239 43.3818L0.820397 41.5662L2.766 44.0423C3.31463 44.7625 3.96161 45.8707 4.5606 46.9655L4.69235 47.2341C5.23943 48.2371 5.82112 49.3013 6.4083 50.161C7.106 51.1804 7.56693 51.567 7.92009 51.6916C7.89116 56.1389 8.5595 60.4981 9.83189 64.64C8.98869 63.8632 8.15612 63.1409 7.19022 62.4327C5.98718 61.5551 4.26305 60.506 3.37543 60.2575C3.37543 60.2575 3.37543 60.2575 3.35144 60.2508L0.298069 59.422L2.98416 61.1009C3.75695 61.5748 4.7374 62.4158 5.66988 63.2433L5.90034 63.4366C6.77421 64.1963 7.66539 64.9865 8.50072 65.6067C9.21216 66.1148 9.71319 66.3581 10.073 66.4588C10.217 66.4991 10.3436 66.5088 10.4463 66.5117C11.9306 70.6358 14.0497 74.5254 16.6863 78.0447C15.6229 77.5926 14.5941 77.2016 13.4493 76.8554C12.0099 76.4526 10.0026 76.0453 9.10009 76.1275L5.9512 76.3793L9.05136 77.041C9.92836 77.2349 11.1491 77.6796 12.3151 78.1347L12.5963 78.2392C13.6664 78.6675 14.7845 79.1092 15.7681 79.3845C16.9676 79.7202 17.5901 79.7142 17.9142 79.5731C20.6762 82.9215 23.9625 85.8759 27.6864 88.2831C26.5401 88.2198 25.459 88.2005 24.2725 88.2805C22.7954 88.3821 20.7689 88.6906 19.9367 89.0758L17.0616 90.3829L20.1853 89.9437C21.0772 89.807 22.3636 89.8323 23.6193 89.8747L23.9273 89.8836C25.0803 89.9231 26.2641 89.9453 27.2932 89.8728C28.5104 89.7757 29.0838 89.5756 29.3559 89.3428C32.5084 91.2038 35.9732 92.6886 39.6436 93.7159C40.2673 93.8905 40.8977 94.0412 41.5282 94.1919C40.4254 94.5271 39.3947 94.8824 38.3065 95.3505C36.949 95.9492 35.1459 96.9382 34.5069 97.5577L32.2602 99.7618L35.0488 98.3018C35.8637 97.886 37.1264 97.441 38.2425 97.0581L38.5292 96.958C39.6146 96.5922 40.7547 96.216 41.6961 95.8099C42.8217 95.3008 43.2912 94.9171 43.4568 94.6029C47.8818 95.4294 52.2782 95.5267 56.5577 95.0248C55.6454 95.6965 54.805 96.3885 53.9552 97.2065C52.8946 98.2231 51.5296 99.7726 51.145 100.592L49.8056 103.436L51.9111 101.09C52.5155 100.409 53.516 99.6075 54.4857 98.823L54.7205 98.6312C55.6156 97.9288 56.548 97.1853 57.2924 96.4666C58.1796 95.6075 58.484 95.0746 58.5296 94.7268C62.8999 93.9927 67.0949 92.5914 71.009 90.6223C70.379 91.5791 69.8037 92.5255 69.2909 93.6182C68.6326 94.9534 67.8926 96.8581 67.8199 97.7649L67.5361 100.905L68.7142 97.9894C69.0508 97.1565 69.6969 96.0496 70.3536 94.9973L70.5058 94.7308C71.1118 93.7672 71.7311 92.7559 72.1731 91.8237C72.7232 90.69 72.8117 90.0967 72.7307 89.7392C76.541 87.5864 80.0158 84.8762 83.0324 81.6772C82.7729 82.7892 82.5747 83.8669 82.4525 85.0431C82.298 86.5194 82.243 88.5643 82.4916 89.4322L83.2983 92.4652L83.4008 89.3262C83.4256 88.4059 83.6705 87.1611 83.9088 85.9401L83.965 85.6468C84.2005 84.528 84.4254 83.3548 84.5316 82.3286C84.6432 81.0979 84.5264 80.4986 84.3533 80.1926C87.1541 76.9332 89.4899 73.2088 91.2382 69.0882C91.3653 70.2054 91.5537 71.2883 91.8247 72.4458C92.1728 73.8825 92.8458 75.8221 93.3638 76.5594L95.1733 79.1519L94.1959 76.1742C93.9847 75.2652 93.7711 73.995 93.5988 72.7621ZM29.7484 88.68C29.8007 88.3083 29.7798 87.7359 29.5273 86.7896C29.2641 85.7888 28.8531 84.6694 28.4527 83.6044L28.3517 83.3186C27.93 82.1446 27.4911 80.9401 27.3278 80.0446L26.7465 76.9459L26.4147 80.0723C26.318 80.9723 26.6869 82.9814 27.059 84.4247C27.354 85.589 27.7371 86.6233 28.1855 87.7017C24.4855 85.3012 21.2405 82.3841 18.4958 79.0663C18.668 78.7282 18.8218 78.1789 18.9252 77.2549C19.0313 76.2287 19.0269 75.0428 19.0159 73.8808L19.0241 73.5741C19.0091 72.3337 19.0315 71.0522 19.1762 70.1656L19.6826 67.0624L18.2539 69.856C17.8454 70.6688 17.4892 72.6809 17.3586 74.1638C17.2604 75.3467 17.2435 76.4237 17.2852 77.5685C14.6832 74.1103 12.5988 70.2819 11.1557 66.1952C11.4345 65.9385 11.7668 65.4906 12.1888 64.6301C12.6307 63.6979 13.0476 62.5784 13.427 61.4999L13.5312 61.22C13.9614 60.0527 14.3983 58.8616 14.8548 58.0622L16.3967 55.3261L14.1328 57.4996C13.4631 58.1362 12.4552 59.8887 11.8209 61.2307C11.3148 62.2994 10.9247 63.3234 10.5693 64.4086C9.30749 60.3211 8.64977 56.0164 8.68263 51.6475C9.03067 51.5131 9.51084 51.1839 10.2112 50.5301C10.9556 49.8113 11.7056 48.888 12.4421 48.0125L12.6356 47.7834C13.4469 46.8258 14.2648 45.8443 14.9692 45.2688L17.357 43.2072L14.4646 44.4837C13.6391 44.845 12.057 46.1535 11.0137 47.2007C10.1572 48.0426 9.45805 48.8771 8.73879 49.7832C8.89991 46.712 9.37564 43.626 10.238 40.5451C10.5655 39.3748 10.9583 38.2486 11.3685 37.1529C11.7311 37.1514 12.3151 37.0058 13.1779 36.6035C14.126 36.1735 15.145 35.5831 16.1639 34.9926L16.4093 34.8553C17.4896 34.2305 18.6245 33.5953 19.4606 33.2884L22.4089 32.1821L19.2667 32.41C18.3468 32.4616 16.4426 33.1649 15.0784 33.7874C13.9836 34.2793 13.0327 34.8116 12.055 35.4393C13.7833 31.3904 16.0818 27.7071 18.8518 24.4648C18.8758 24.4715 18.9238 24.4849 18.9478 24.4916C19.3077 24.5923 19.8622 24.6445 20.734 24.5795C21.7632 24.507 22.9352 24.2942 24.0524 24.0918L24.3564 24.0224C25.5283 23.8096 26.8576 23.5893 27.7641 23.5855L30.9314 23.5448L27.8914 22.6682C27.0038 22.4198 24.9616 22.4148 23.4778 22.5403C22.2846 22.6442 21.2047 22.8055 20.0741 23.0556C23.0533 19.8976 26.4735 17.1978 30.2464 15.0861C30.5422 15.3234 31.0672 15.5734 31.9788 15.8285C32.9624 16.1038 34.1473 16.3067 35.2842 16.4962L35.5788 16.5529C36.8117 16.7692 38.0686 16.9922 38.9362 17.3123L41.9054 18.3494L39.4061 16.4652C38.6773 15.9264 36.7503 15.2325 35.3109 14.8296C34.1594 14.5073 33.1011 14.3141 31.9575 14.1486C35.7863 12.207 39.9439 10.8468 44.2356 10.1165C44.4326 10.4292 44.8322 10.8501 45.6089 11.4023C46.4509 11.9985 47.4742 12.5939 48.4802 13.1588L48.7481 13.311C49.8433 13.9266 50.9492 14.5967 51.6473 15.1527L54.0892 17.1496L52.3103 14.5399C51.7991 13.7787 50.2271 12.4631 49.0174 11.6094C48.0448 10.9251 47.0868 10.3737 46.0501 9.82598C50.2816 9.3106 54.6473 9.4251 59.0244 10.2381C59.1055 10.5956 59.345 11.1262 59.8736 11.918C60.4607 12.7777 61.2225 13.6606 61.9843 14.5434L62.1774 14.7777C62.9978 15.7284 63.8049 16.7269 64.2615 17.4986L65.887 20.1941L65.1109 17.144C64.893 16.2589 63.8587 14.5014 63.0092 13.285C62.3288 12.2962 61.6322 11.4574 60.8398 10.5917C61.4702 10.7424 62.1246 10.8998 62.7483 11.0744C66.3947 12.095 69.7635 13.553 72.8988 15.3834C72.8465 15.7551 72.8673 16.3275 73.1198 17.2738C73.383 18.2746 73.794 19.394 74.1944 20.459L74.2955 20.7448C74.7171 21.9187 75.156 23.1232 75.3193 24.0188L75.9073 27.0936L76.2737 24.0284C76.3704 23.1283 76.0015 21.1193 75.6294 19.6759C75.3104 18.505 74.9513 17.4774 74.5029 16.399C78.2029 18.7995 81.4479 21.7165 84.1926 25.0344C84.0204 25.3725 83.8666 25.9218 83.7633 26.8458C83.6571 27.872 83.6615 29.0579 83.6725 30.2199L83.671 30.5027C83.686 31.7431 83.6636 33.0246 83.5189 33.9112L83.0125 37.0144L84.3999 34.1835C84.8084 33.3707 85.1647 31.3586 85.2952 29.8757C85.3934 28.6927 85.4103 27.6158 85.3686 26.4709C87.9706 29.9291 90.055 33.7575 91.4981 37.8442C91.2193 38.101 90.887 38.5488 90.4651 39.4094C90.0231 40.3416 89.6062 41.4611 89.2268 42.5396L89.1226 42.8194C88.6924 43.9867 88.2555 45.1779 87.799 45.9773L86.2571 48.7134L88.521 46.5399C89.1907 45.9032 90.1986 44.1508 90.8329 42.8088C91.339 41.74 91.7291 40.7161 92.0845 39.6309C93.3463 43.7183 94.004 48.023 93.9712 52.392C93.6231 52.5264 93.143 52.8556 92.4426 53.5094C91.6982 54.2282 90.9482 55.1514 90.2117 56.027L90.0182 56.2561C89.2069 57.2137 88.389 58.1952 87.6846 58.7707L85.2968 60.8323L88.1892 59.5558C89.0147 59.1945 90.5968 57.886 91.6401 56.8388C92.4966 55.9969 93.1958 55.1624 93.915 54.2563C93.7539 57.3274 93.2782 60.4135 92.4158 63.4944C92.0883 64.6647 91.6955 65.7909 91.2853 66.8865C90.9228 66.8881 90.3388 67.0337 89.4759 67.436C88.5278 67.866 87.5088 68.4564 86.4899 69.0469L86.2445 69.1842C85.1642 69.809 84.0293 70.4442 83.1932 70.751L80.2449 71.8574L83.3871 71.6294C84.307 71.5779 86.2112 70.8746 87.5754 70.2521C88.6702 69.7601 89.6211 69.2279 90.5988 68.6002C88.8705 72.6491 86.572 76.3324 83.802 79.5747C83.4488 79.4501 82.8703 79.3912 81.9198 79.46C80.8906 79.5325 79.7187 79.7453 78.6014 79.9477L78.3041 79.9932C77.0775 80.2165 75.8029 80.4263 74.8964 80.4301L71.729 80.4708L74.769 81.3474C74.769 81.3474 74.769 81.3474 74.793 81.3541C75.6806 81.6025 77.7229 81.6075 79.1827 81.4753C80.3759 81.3714 81.4558 81.2101 82.5864 80.96C79.6071 84.118 76.187 86.8178 72.4141 88.9295C72.1183 88.6922 71.5933 88.4422 70.6817 88.1871C69.6981 87.9118 68.5132 87.7089 67.3762 87.5194L67.0817 87.4627C65.8488 87.2464 64.5919 87.0234 63.7243 86.7033L60.7551 85.6662L63.3157 87.5161C64.0272 88.0243 65.8516 88.7152 67.267 89.1113C67.315 89.1248 67.3629 89.1382 67.4109 89.1516C68.5624 89.4739 69.6207 89.6671 70.7643 89.8327C66.9356 91.7742 62.778 93.1345 58.4863 93.8648C58.2892 93.5521 57.8897 93.1312 57.1129 92.579C56.2709 91.9828 55.2476 91.3873 54.2416 90.8225L53.9738 90.6702C52.8785 90.0546 51.7726 89.3845 51.0745 88.8286L48.6326 86.8317L50.4115 89.4414C50.9228 90.2026 52.4947 91.5182 53.7045 92.3719C54.677 93.0562 55.6351 93.6076 56.6717 94.1553C52.4402 94.6707 48.0745 94.5562 43.6974 93.7431C43.6164 93.3856 43.3769 92.855 42.8483 92.0632C42.2611 91.2035 41.4993 90.3207 40.7375 89.4379L40.5444 89.2036C39.724 88.2528 38.917 87.2543 38.4604 86.4827L36.8349 83.7871L37.6109 86.8373C37.8288 87.7224 38.8632 89.4799 39.7127 90.6963C40.3931 91.6851 41.0896 92.5239 41.8821 93.3895C41.2517 93.2388 40.5972 93.0814 39.9735 92.9069C36.2524 91.9684 32.8596 90.5037 29.7484 88.68Z" fill="url(#paint0_linear_184_6903)"/>
<defs>
<linearGradient id="paint0_linear_184_6903" x1="65.0958" y1="2.87212" x2="37.5619" y2="101.246" gradientUnits="userSpaceOnUse">
<stop stop-color="#1FBC68"/>
<stop offset="1" stop-color="#22C16C"/>
</linearGradient>
</defs>
</svg>
