<svg width="86" height="80" viewBox="0 0 86 80" fill="none" xmlns="http://www.w3.org/2000/svg">
<path d="M0.861328 40C0.861328 17.9086 18.7699 0 40.8613 0H45.0287C67.1201 0 85.0287 17.9086 85.0287 40C85.0287 62.0914 67.1201 80 45.0287 80H40.8613C18.7699 80 0.861328 62.0914 0.861328 40Z" fill="url(#paint0_linear_184_7168)"/>
<path d="M21.9648 59.9375V20.0625H63.9235V59.9375H21.9648Z" stroke="white" stroke-width="0.125"/>
<path d="M57.4098 27.5H28.4772C27.7509 27.5 27.1621 28.0596 27.1621 28.75V51.25C27.1621 51.9404 27.7509 52.5 28.4772 52.5H57.4098C58.1361 52.5 58.7249 51.9404 58.7249 51.25V28.75C58.7249 28.0596 58.1361 27.5 57.4098 27.5Z" stroke="white" stroke-width="2" stroke-linecap="round" stroke-linejoin="round"/>
<path d="M27.1621 51.25L35.4379 40.3295C35.5601 40.225 35.705 40.1422 35.8646 40.0856C36.0241 40.0291 36.1952 40 36.3679 40C36.5406 40 36.7116 40.0291 36.8711 40.0856C37.0307 40.1422 37.1757 40.225 37.2978 40.3295L44.6437 46.6135C44.7659 46.718 44.9108 46.8008 45.0704 46.8574C45.23 46.9139 45.401 46.943 45.5737 46.943C45.7464 46.943 45.9174 46.9139 46.0769 46.8574C46.2365 46.8008 46.3815 46.718 46.5036 46.6135L49.9042 43.7045C50.0263 43.6 50.1713 43.5172 50.3309 43.4606C50.4904 43.4041 50.6614 43.375 50.8341 43.375C51.0068 43.375 51.1778 43.4041 51.3374 43.4606C51.497 43.5172 51.6419 43.6 51.7641 43.7045L58.7249 51.25" fill="white"/>
<path d="M27.1621 51.25L35.4379 40.3295C35.5601 40.225 35.705 40.1422 35.8646 40.0856C36.0241 40.0291 36.1952 40 36.3679 40C36.5406 40 36.7116 40.0291 36.8711 40.0856C37.0307 40.1422 37.1757 40.225 37.2978 40.3295L44.6437 46.6135C44.7659 46.718 44.9108 46.8008 45.0704 46.8574C45.23 46.9139 45.401 46.943 45.5737 46.943C45.7464 46.943 45.9174 46.9139 46.0769 46.8574C46.2365 46.8008 46.3815 46.718 46.5036 46.6135L49.9042 43.7045C50.0263 43.6 50.1713 43.5172 50.3309 43.4606C50.4904 43.4041 50.6614 43.375 50.8341 43.375C51.0068 43.375 51.1778 43.4041 51.3374 43.4606C51.497 43.5172 51.6419 43.6 51.7641 43.7045L58.7249 51.25H27.1621Z" stroke="white" stroke-width="2" stroke-linecap="round" stroke-linejoin="round"/>
<path d="M49.4571 35.625C49.4571 36.6231 48.6049 37.4375 47.5469 37.4375C46.4889 37.4375 45.6367 36.6231 45.6367 35.625C45.6367 34.6269 46.4889 33.8125 47.5469 33.8125C48.6049 33.8125 49.4571 34.6269 49.4571 35.625Z" fill="white" stroke="white" stroke-width="0.125"/>
<defs>
<linearGradient id="paint0_linear_184_7168" x1="-4.5206" y1="95.7265" x2="129.35" y2="33.8007" gradientUnits="userSpaceOnUse">
<stop stop-color="#FE6F2D"/>
<stop offset="0.650355" stop-color="#FDCE38"/>
</linearGradient>
</defs>
</svg>
