<svg width="85" height="80" viewBox="0 0 85 80" fill="none" xmlns="http://www.w3.org/2000/svg">
<path d="M0.751953 40C0.751953 17.9086 18.6606 0 40.752 0H44.9193C67.0107 0 84.9193 17.9086 84.9193 40C84.9193 62.0914 67.0107 80 44.9193 80H40.7519C18.6605 80 0.751953 62.0914 0.751953 40Z" fill="url(#paint0_linear_184_7171)"/>
<path d="M29.6836 41.8105V52.4999C29.6836 52.8314 29.8222 53.1494 30.0688 53.3838C30.3154 53.6182 30.6499 53.7499 30.9987 53.7499H54.6708C55.0196 53.7499 55.3541 53.6182 55.6007 53.3838C55.8473 53.1494 55.9859 52.8314 55.9859 52.4999V41.8108" stroke="white" stroke-width="2" stroke-linecap="round" stroke-linejoin="round"/>
<path d="M30.675 26.25H54.9933C55.2791 26.25 55.5571 26.3385 55.7852 26.5021C56.0134 26.6656 56.1793 26.8954 56.2578 27.1566L58.6155 35H27.0527L29.4104 27.1566C29.489 26.8954 29.6548 26.6656 29.883 26.5021C30.1112 26.3385 30.3892 26.25 30.675 26.25Z" fill="white" stroke="white" stroke-width="2" stroke-linecap="round" stroke-linejoin="round"/>
<path d="M37.5737 35V37.5C37.5737 38.8261 37.0194 40.0979 36.0329 41.0355C35.0464 41.9732 33.7084 42.5 32.3132 42.5C30.918 42.5 29.58 41.9732 28.5935 41.0355C27.607 40.0979 27.0527 38.8261 27.0527 37.5V35" stroke="white" stroke-width="2" stroke-linecap="round" stroke-linejoin="round"/>
<path d="M48.0951 35V37.5C48.0951 38.8261 47.5409 40.0979 46.5544 41.0355C45.5679 41.9732 44.2298 42.5 42.8347 42.5C41.4395 42.5 40.1015 41.9732 39.115 41.0355C38.1284 40.0979 37.5742 38.8261 37.5742 37.5V35" stroke="white" stroke-width="2" stroke-linecap="round" stroke-linejoin="round"/>
<path d="M58.6166 35V37.5C58.6166 38.8261 58.0624 40.0979 57.0759 41.0355C56.0893 41.9732 54.7513 42.5 53.3562 42.5C51.961 42.5 50.623 41.9732 49.6365 41.0355C48.6499 40.0979 48.0957 38.8261 48.0957 37.5V35" stroke="white" stroke-width="2" stroke-linecap="round" stroke-linejoin="round"/>
<defs>
<linearGradient id="paint0_linear_184_7171" x1="14.1324" y1="-19.1304" x2="124.57" y2="91.0458" gradientUnits="userSpaceOnUse">
<stop stop-color="#2EA3F2"/>
<stop offset="1" stop-color="#A651FB"/>
</linearGradient>
</defs>
</svg>
