<svg width="27" height="24" viewBox="0 0 27 24" fill="none" xmlns="http://www.w3.org/2000/svg">
<path d="M12.9375 22.75C6.58125 22.75 1.40625 18.15 1.40625 12.5C1.40625 6.85 6.58125 2.25 12.9375 2.25C19.2938 2.25 24.4688 6.85 24.4688 12.5C24.4688 18.15 19.2938 22.75 12.9375 22.75ZM12.9375 3.75C7.50375 3.75 3.09375 7.68 3.09375 12.5C3.09375 17.32 7.50375 21.25 12.9375 21.25C18.3713 21.25 22.7812 17.32 22.7812 12.5C22.7812 7.68 18.3713 3.75 12.9375 3.75Z" fill="#757575"/>
<path d="M24.7511 23.7499C24.5373 23.7499 24.3236 23.6799 24.1548 23.5299L21.9048 21.5299C21.5786 21.2399 21.5786 20.7599 21.9048 20.4699C22.2311 20.1799 22.7711 20.1799 23.0973 20.4699L25.3473 22.4699C25.6736 22.7599 25.6736 23.2399 25.3473 23.5299C25.1786 23.6799 24.9648 23.7499 24.7511 23.7499Z" fill="#757575"/>
</svg>
