<svg width="84" height="80" viewBox="0 0 84 80" fill="none" xmlns="http://www.w3.org/2000/svg">
<path d="M0 40C0 17.9086 17.9086 0 40 0H43.8941C65.9855 0 83.8941 17.9086 83.8941 40C83.8941 62.0914 65.9855 80 43.8941 80H40C17.9086 80 0 62.0914 0 40Z" fill="url(#paint0_linear_184_7160)"/>
<path d="M27.5273 50V30C27.5273 30.663 27.8036 31.2989 28.2952 31.7678C28.7869 32.2366 29.4537 32.5 30.149 32.5H56.3659C56.7136 32.5 57.047 32.6317 57.2929 32.8661C57.5387 33.1005 57.6768 33.4185 57.6768 33.75V51.25C57.6768 51.5815 57.5387 51.8995 57.2929 52.1339C57.047 52.3683 56.7136 52.5 56.3659 52.5H30.149C29.4537 52.5 28.7869 52.2366 28.2952 51.7678C27.8036 51.2989 27.5273 50.663 27.5273 50Z" fill="white"/>
<path d="M27.5273 30V50C27.5273 50.663 27.8036 51.2989 28.2952 51.7678C28.7869 52.2366 29.4537 52.5 30.149 52.5H56.3659C56.7136 52.5 57.047 52.3683 57.2929 52.1339C57.5387 51.8995 57.6768 51.5815 57.6768 51.25V33.75C57.6768 33.4185 57.5387 33.1005 57.2929 32.8661C57.047 32.6317 56.7136 32.5 56.3659 32.5H30.149C29.4537 32.5 28.7869 32.2366 28.2952 31.7678C27.8036 31.2989 27.5273 30.663 27.5273 30ZM27.5273 30C27.5273 29.337 27.8036 28.7011 28.2952 28.2322C28.7869 27.7634 29.4537 27.5 30.149 27.5H51.1226" stroke="white" stroke-width="2" stroke-linecap="round" stroke-linejoin="round"/>
<path d="M50.4663 44.375C51.5522 44.375 52.4325 43.5355 52.4325 42.5C52.4325 41.4645 51.5522 40.625 50.4663 40.625C49.3803 40.625 48.5 41.4645 48.5 42.5C48.5 43.5355 49.3803 44.375 50.4663 44.375Z" fill="url(#paint1_linear_184_7160)"/>
<defs>
<linearGradient id="paint0_linear_184_7160" x1="42.0216" y1="-16.7521" x2="-7.37023" y2="82.0412" gradientUnits="userSpaceOnUse">
<stop stop-color="#23D3A4"/>
<stop offset="1" stop-color="#5B49CF"/>
</linearGradient>
<linearGradient id="paint1_linear_184_7160" x1="50.4698" y1="39.8397" x2="48.1545" y2="44.4707" gradientUnits="userSpaceOnUse">
<stop stop-color="#23D3A4"/>
<stop offset="1" stop-color="#5B49CF"/>
</linearGradient>
</defs>
</svg>
