<svg width="290" height="71" viewBox="0 0 290 71" fill="none" xmlns="http://www.w3.org/2000/svg">
<g filter="url(#filter0_d_314_2398)">
<g filter="url(#filter1_d_314_2398)">
<path d="M24.977 47.48C22.737 47.48 20.5904 47.1867 18.537 46.6C16.4837 45.9867 14.8304 45.2 13.577 44.24L15.777 39.36C16.977 40.2133 18.3904 40.92 20.017 41.48C21.6704 42.0133 23.337 42.28 25.017 42.28C26.297 42.28 27.3237 42.16 28.097 41.92C28.897 41.6533 29.4837 41.2933 29.857 40.84C30.2304 40.3867 30.417 39.8667 30.417 39.28C30.417 38.5333 30.1237 37.9467 29.537 37.52C28.9504 37.0667 28.177 36.7067 27.217 36.44C26.257 36.1467 25.1904 35.88 24.017 35.64C22.8704 35.3733 21.7104 35.0533 20.537 34.68C19.3904 34.3067 18.337 33.8267 17.377 33.24C16.417 32.6533 15.6304 31.88 15.017 30.92C14.4304 29.96 14.137 28.7333 14.137 27.24C14.137 25.64 14.5637 24.1867 15.417 22.88C16.297 21.5467 17.6037 20.4933 19.337 19.72C21.097 18.92 23.297 18.52 25.937 18.52C27.697 18.52 29.4304 18.7333 31.137 19.16C32.8437 19.56 34.3504 20.1733 35.657 21L33.657 25.92C32.3504 25.1733 31.0437 24.6267 29.737 24.28C28.4304 23.9067 27.1504 23.72 25.897 23.72C24.6437 23.72 23.617 23.8667 22.817 24.16C22.017 24.4533 21.4437 24.84 21.097 25.32C20.7504 25.7733 20.577 26.3067 20.577 26.92C20.577 27.64 20.8704 28.2267 21.457 28.68C22.0437 29.1067 22.817 29.4533 23.777 29.72C24.737 29.9867 25.7904 30.2533 26.937 30.52C28.1104 30.7867 29.2704 31.0933 30.417 31.44C31.5904 31.7867 32.657 32.2533 33.617 32.84C34.577 33.4267 35.3504 34.2 35.937 35.16C36.5504 36.12 36.857 37.3333 36.857 38.8C36.857 40.3733 36.417 41.8133 35.537 43.12C34.657 44.4267 33.337 45.48 31.577 46.28C29.8437 47.08 27.6437 47.48 24.977 47.48ZM41.9008 47V28.92H34.6608V24H55.4608V28.92H48.2208V47H41.9008ZM66.763 47.44C64.283 47.44 62.0696 46.9333 60.123 45.92C58.1763 44.88 56.643 43.4533 55.523 41.64C54.403 39.8267 53.843 37.7733 53.843 35.48C53.843 33.1867 54.403 31.1467 55.523 29.36C56.643 27.5733 58.1763 26.16 60.123 25.12C62.0696 24.08 64.283 23.56 66.763 23.56C69.243 23.56 71.4563 24.08 73.403 25.12C75.3496 26.16 76.883 27.5733 78.003 29.36C79.123 31.1467 79.683 33.1867 79.683 35.48C79.683 37.7733 79.123 39.8267 78.003 41.64C76.883 43.4533 75.3496 44.88 73.403 45.92C71.4563 46.9333 69.243 47.44 66.763 47.44ZM66.763 42.28C68.043 42.28 69.163 42 70.123 41.44C71.1096 40.8533 71.883 40.04 72.443 39C73.003 37.96 73.283 36.8 73.283 35.52C73.283 34.1867 73.003 33.0133 72.443 32C71.883 30.9867 71.1096 30.1867 70.123 29.6C69.163 29.0133 68.043 28.72 66.763 28.72C65.5096 28.72 64.3896 29.0133 63.403 29.6C62.4163 30.1867 61.6296 30.9867 61.043 32C60.483 33.0133 60.203 34.1733 60.203 35.48C60.203 36.7867 60.483 37.96 61.043 39C61.6296 40.04 62.4163 40.8533 63.403 41.44C64.3896 42 65.5096 42.28 66.763 42.28ZM92.5158 47.44C90.0624 47.44 87.8624 46.9333 85.9158 45.92C83.9958 44.88 82.4758 43.4667 81.3558 41.68C80.2358 39.8667 79.6758 37.8133 79.6758 35.52C79.6758 33.2 80.2358 31.1467 81.3558 29.36C82.4758 27.5467 83.9958 26.1333 85.9158 25.12C87.8624 24.08 90.0624 23.56 92.5158 23.56C94.6758 23.56 96.5691 23.8933 98.1958 24.56C99.8491 25.2 101.262 26.2667 102.436 27.76L98.3558 31.48C97.5824 30.5467 96.7291 29.8533 95.7958 29.4C94.8624 28.9467 93.8491 28.72 92.7558 28.72C91.4491 28.72 90.2891 29.0133 89.2758 29.6C88.2624 30.16 87.4624 30.9467 86.8758 31.96C86.3158 32.9733 86.0358 34.16 86.0358 35.52C86.0358 36.8533 86.3158 38.0267 86.8758 39.04C87.4624 40.0533 88.2624 40.8533 89.2758 41.44C90.2891 42 91.4491 42.28 92.7558 42.28C93.8491 42.28 94.8624 42.0533 95.7958 41.6C96.7291 41.1467 97.5824 40.4533 98.3558 39.52L102.436 43.24C101.262 44.7067 99.8491 45.7733 98.1958 46.44C96.5691 47.1067 94.6758 47.44 92.5158 47.44ZM109.235 41.84L108.875 34.8L119.195 24H126.155L116.155 34.72L112.635 38.28L109.235 41.84ZM103.595 47V24H109.835V47H103.595ZM119.315 47L111.515 37.4L115.635 33L126.675 47H119.315Z" fill="white"/>
<path d="M126.933 47V19H132.293L144.213 38.76H141.373L153.093 19H158.413L158.493 47H152.413L152.373 28.32H153.493L144.133 44.04H141.213L131.653 28.32H133.013V47H126.933ZM173.336 47.44C170.856 47.44 168.643 46.9333 166.696 45.92C164.75 44.88 163.216 43.4533 162.096 41.64C160.976 39.8267 160.416 37.7733 160.416 35.48C160.416 33.1867 160.976 31.1467 162.096 29.36C163.216 27.5733 164.75 26.16 166.696 25.12C168.643 24.08 170.856 23.56 173.336 23.56C175.816 23.56 178.03 24.08 179.976 25.12C181.923 26.16 183.456 27.5733 184.576 29.36C185.696 31.1467 186.256 33.1867 186.256 35.48C186.256 37.7733 185.696 39.8267 184.576 41.64C183.456 43.4533 181.923 44.88 179.976 45.92C178.03 46.9333 175.816 47.44 173.336 47.44ZM173.336 42.28C174.616 42.28 175.736 42 176.696 41.44C177.683 40.8533 178.456 40.04 179.016 39C179.576 37.96 179.856 36.8 179.856 35.52C179.856 34.1867 179.576 33.0133 179.016 32C178.456 30.9867 177.683 30.1867 176.696 29.6C175.736 29.0133 174.616 28.72 173.336 28.72C172.083 28.72 170.963 29.0133 169.976 29.6C168.99 30.1867 168.203 30.9867 167.616 32C167.056 33.0133 166.776 34.1733 166.776 35.48C166.776 36.7867 167.056 37.96 167.616 39C168.203 40.04 168.99 40.8533 169.976 41.44C170.963 42 172.083 42.28 173.336 42.28ZM187.929 47V24H193.129L206.089 39.56H203.729V24H209.929V47H204.729L191.729 31.44H194.129V47H187.929ZM218.933 41.84L218.573 34.8L228.893 24H235.853L225.853 34.72L222.333 38.28L218.933 41.84ZM213.293 47V24H219.533V47H213.293ZM229.013 47L221.213 37.4L225.333 33L236.373 47H229.013ZM241.992 33.04H253.112V37.64H241.992V33.04ZM242.632 42.16H254.912V47H236.392V24H254.472V28.84H242.632V42.16ZM262.36 47V37.44L263.52 41.28L253.08 24H259.76L267.44 36.68H263.96L271.64 24H278L267.52 41.28L268.68 37.44V47H262.36Z" fill="#3FBFA0"/>
</g>
</g>
<defs>
<filter id="filter0_d_314_2398" x="0" y="0" width="290" height="73" filterUnits="userSpaceOnUse" color-interpolation-filters="sRGB">
<feFlood flood-opacity="0" result="BackgroundImageFix"/>
<feColorMatrix in="SourceAlpha" type="matrix" values="0 0 0 0 0 0 0 0 0 0 0 0 0 0 0 0 0 0 127 0" result="hardAlpha"/>
<feOffset dy="4"/>
<feGaussianBlur stdDeviation="6"/>
<feComposite in2="hardAlpha" operator="out"/>
<feColorMatrix type="matrix" values="0 0 0 0 0 0 0 0 0 0 0 0 0 0 0 0 0 0 0.25 0"/>
<feBlend mode="normal" in2="BackgroundImageFix" result="effect1_dropShadow_314_2398"/>
<feBlend mode="normal" in="SourceGraphic" in2="effect1_dropShadow_314_2398" result="shape"/>
</filter>
<filter id="filter1_d_314_2398" x="9.57703" y="18.52" width="272.423" height="36.96" filterUnits="userSpaceOnUse" color-interpolation-filters="sRGB">
<feFlood flood-opacity="0" result="BackgroundImageFix"/>
<feColorMatrix in="SourceAlpha" type="matrix" values="0 0 0 0 0 0 0 0 0 0 0 0 0 0 0 0 0 0 127 0" result="hardAlpha"/>
<feOffset dy="4"/>
<feGaussianBlur stdDeviation="2"/>
<feComposite in2="hardAlpha" operator="out"/>
<feColorMatrix type="matrix" values="0 0 0 0 0 0 0 0 0 0 0 0 0 0 0 0 0 0 0.25 0"/>
<feBlend mode="normal" in2="BackgroundImageFix" result="effect1_dropShadow_314_2398"/>
<feBlend mode="normal" in="SourceGraphic" in2="effect1_dropShadow_314_2398" result="shape"/>
</filter>
</defs>
</svg>
