<svg width="18" height="17" viewBox="0 0 18 17" fill="none" xmlns="http://www.w3.org/2000/svg">
<path d="M8.82196 1.02837C8.89533 0.879732 9.10728 0.879732 9.18064 1.02837L11.5298 5.78752C11.5589 5.84649 11.6152 5.88739 11.6802 5.8969L16.9339 6.6648C17.0979 6.68877 17.1632 6.89033 17.0445 7.00597L13.2433 10.7083C13.1962 10.7543 13.1746 10.8205 13.1858 10.8854L14.0828 16.1156C14.1108 16.279 13.9393 16.4036 13.7926 16.3264L9.09439 13.8557C9.03612 13.825 8.96649 13.825 8.90821 13.8557L4.21003 16.3264C4.0633 16.4036 3.89179 16.279 3.91982 16.1156L4.81685 10.8854C4.82799 10.8205 4.80645 10.7543 4.75928 10.7083L0.958105 7.00597C0.839386 6.89033 0.904742 6.68877 1.06873 6.6648L6.32238 5.8969C6.38745 5.88739 6.44368 5.84649 6.47279 5.78752L8.82196 1.02837Z" fill="#FFA800"/>
</svg>
