<svg width="21" height="20" viewBox="0 0 21 20" fill="none" xmlns="http://www.w3.org/2000/svg">
<path d="M4.30818 15.314C4.32766 15.3961 4.36356 15.4735 4.41373 15.5414C4.46389 15.6093 4.52727 15.6664 4.60007 15.7092C4.67286 15.752 4.75355 15.7796 4.8373 15.7904C4.92104 15.8012 5.0061 15.7949 5.08736 15.772C8.81308 14.7433 12.7479 14.7429 16.4738 15.7709C16.555 15.7938 16.64 15.8 16.7237 15.7893C16.8075 15.7785 16.8881 15.7509 16.9609 15.7081C17.0337 15.6653 17.097 15.6083 17.1472 15.5404C17.1973 15.4725 17.2333 15.3952 17.2528 15.3131L19.2441 6.85085C19.2707 6.73756 19.2652 6.61908 19.2282 6.50876C19.1912 6.39843 19.124 6.30063 19.0344 6.22639C18.9448 6.15214 18.8362 6.1044 18.7209 6.08852C18.6056 6.07265 18.4882 6.08929 18.3819 6.13655L14.43 7.89293C14.2873 7.95635 14.126 7.96406 13.9779 7.91453C13.8298 7.86501 13.7057 7.76183 13.6298 7.62533L11.3289 3.48358C11.2747 3.38615 11.1955 3.30496 11.0995 3.24844C11.0034 3.19192 10.894 3.16211 10.7825 3.16211C10.671 3.16211 10.5616 3.19192 10.4655 3.24844C10.3695 3.30496 10.2903 3.38615 10.2362 3.48358L7.93519 7.62533C7.85935 7.76183 7.73516 7.865 7.58707 7.91453C7.43897 7.96406 7.2777 7.95635 7.13501 7.89293L3.18255 6.13629C3.07622 6.08903 2.95881 6.07239 2.84354 6.08825C2.72826 6.10411 2.61971 6.15183 2.53009 6.22604C2.44047 6.30025 2.37335 6.39801 2.33628 6.5083C2.29921 6.6186 2.29366 6.73705 2.32027 6.85033L4.30818 15.314Z" stroke="white" stroke-width="2" stroke-linecap="round" stroke-linejoin="round"/>
<path d="M8.28223 12.6311C9.94431 12.4563 11.6202 12.4563 13.2822 12.6311" stroke="white" stroke-width="2" stroke-linecap="round" stroke-linejoin="round"/>
</svg>
