<svg width="21" height="21" viewBox="0 0 21 21" fill="none" xmlns="http://www.w3.org/2000/svg">
<path d="M18.4201 9.17589L17.2582 7.82598C17.0361 7.56967 16.8566 7.09122 16.8566 6.74947V5.29704C16.8566 4.39141 16.1133 3.6481 15.2077 3.6481H13.7553C13.4221 3.6481 12.9351 3.46868 12.6788 3.24655L11.3288 2.0846C10.7393 1.58052 9.77389 1.58052 9.17583 2.0846L7.83446 3.25509C7.57815 3.46868 7.09116 3.6481 6.75796 3.6481H5.27989C4.37426 3.6481 3.63096 4.39141 3.63096 5.29704V6.75802C3.63096 7.09122 3.45154 7.56967 3.23794 7.82598L2.08454 9.18443C1.58901 9.77395 1.58901 10.7308 2.08454 11.3204L3.23794 12.6788C3.45154 12.9351 3.63096 13.4136 3.63096 13.7468V15.2078C3.63096 16.1134 4.37426 16.8567 5.27989 16.8567H6.75796C7.09116 16.8567 7.57815 17.0361 7.83446 17.2582L9.18437 18.4202C9.77389 18.9243 10.7393 18.9243 11.3374 18.4202L12.6873 17.2582C12.9436 17.0361 13.4221 16.8567 13.7638 16.8567H15.2162C16.1219 16.8567 16.8652 16.1134 16.8652 15.2078V13.7553C16.8652 13.4221 17.0446 12.9351 17.2667 12.6788L18.4287 11.3289C18.9242 10.7394 18.9242 9.76541 18.4201 9.17589ZM13.8065 8.63763L9.67991 12.7643C9.5603 12.8839 9.39797 12.9522 9.22709 12.9522C9.05622 12.9522 8.89389 12.8839 8.77427 12.7643L6.70669 10.6967C6.45893 10.4489 6.45893 10.0388 6.70669 9.79104C6.95446 9.54327 7.36456 9.54327 7.61233 9.79104L9.22709 11.4058L12.9009 7.732C13.1487 7.48423 13.5588 7.48423 13.8065 7.732C14.0543 7.97977 14.0543 8.38987 13.8065 8.63763Z" fill="#19976A"/>
</svg>
